<?xml version="1.0" standalone="no"?>
<!DOCTYPE svg PUBLIC "-//W3C//DTD SVG 20010904//EN"
 "http://www.w3.org/TR/2001/REC-SVG-20010904/DTD/svg10.dtd">
<svg version="1.0" xmlns="http://www.w3.org/2000/svg"
 width="201.000000pt" height="251.000000pt" viewBox="0 0 201.000000 251.000000"
 preserveAspectRatio="xMidYMid meet">
<metadata>
Created by potrace 1.15, written by Peter Selinger 2001-2017
</metadata>
<g transform="translate(0.000000,251.000000) scale(0.100000,-0.100000)"
fill="#000000" stroke="none">
<path d="M0 1675 l0 -835 335 0 335 0 0 -85 0 -85 -250 0 -250 0 0 -85 0 -85
-85 0 -85 0 0 -250 0 -250 1005 0 1005 0 0 250 0 250 -85 0 -85 0 0 85 0 85
-250 0 -250 0 0 85 0 85 335 0 335 0 0 835 0 835 -1005 0 -1005 0 0 -835z
m1840 0 l0 -670 -835 0 -835 0 0 668 c0 367 0 669 0 672 0 3 376 4 835 3 l835
-3 0 -670z m-1170 -1255 l0 -80 85 0 85 0 0 80 0 80 85 0 85 0 0 -80 0 -80 80
0 80 0 0 80 0 80 85 0 85 0 0 -80 0 -80 85 0 85 0 0 80 0 80 85 0 86 0 -3 -82
-3 -83 -82 -3 -82 -3 -3 -82 -3 -82 -82 -3 -83 -3 0 86 0 85 -85 0 -85 0 0
-85 0 -86 -82 3 -83 3 -3 83 -3 82 -79 0 -79 0 -3 -82 -3 -83 -82 -3 -83 -3 0
86 0 85 -85 0 -85 0 0 -85 0 -86 -82 3 -83 3 0 85 0 85 83 3 82 3 0 79 0 80
85 0 85 0 0 -80z"/>
<path d="M340 2090 l0 -80 80 0 80 0 0 -85 0 -85 -80 0 -80 0 0 -335 0 -335
665 0 665 0 0 500 0 500 -665 0 -665 0 0 -80z m495 -165 l0 -80 -82 -3 -83 -3
0 86 0 86 83 -3 82 -3 0 -80z m335 0 l0 -85 -80 0 -80 0 0 85 0 85 80 0 80 0
0 -85z m-330 -335 l0 -80 -170 0 -170 0 0 80 0 80 170 0 170 0 0 -80z m500 0
l0 -80 -165 0 -165 0 0 80 0 80 165 0 165 0 0 -80z"/>
</g>
</svg>
